PathFileType	4	(X/Y/Z)	57_2_63_p1_0-639.trc
DataRate	CameraRate	NumFrames	NumMarkers	Units	OrigDataRate	OrigDataStartFrame	OrigNumFrames
60.0	60.0	6	27	m	60.0	0	640
Frame#	Time	RHip			RKnee			RAnkle			RBigToe			RSmallToe			RHeel			LHip			LKnee			LAnkle			LBigToe			LSmallToe			LHeel			Neck			Head			Nose			RShoulder			RElbow			RWrist			RThumb			RIndex			RPinky			LShoulder			LElbow			LWrist			LThumb			LIndex			LPinky			
		X1	Y1	Z1	X2	Y2	Z2	X3	Y3	Z3	X4	Y4	Z4	X5	Y5	Z5	X6	Y6	Z6	X7	Y7	Z7	X8	Y8	Z8	X9	Y9	Z9	X10	Y10	Z10	X11	Y11	Z11	X12	Y12	Z12	X13	Y13	Z13	X14	Y14	Z14	X15	Y15	Z15	X16	Y16	Z16	X17	Y17	Z17	X18	Y18	Z18	X19	Y19	Z19	X20	Y20	Z20	X21	Y21	Z21	X22	Y22	Z22	X23	Y23	Z23	X24	Y24	Z24	X25	Y25	Z25	X26	Y26	Z26	X27	Y27	Z27	
0	0.0	0.24607093298576874	0.6119547012042608	0.9842081432459964	0.25162565438890505	0.7127877170969131	1.357970675631119	0.23535968449663328	0.9209322814930279	1.7761372284049428	0.23115742263586272	0.6634962298128898	1.8001866821271242	0.28986868688520306	0.7258309650576884	1.805088470371479	0.24009870430680114	1.017349649328151	1.8145312960985145	0.02732618947460247	0.6011441751704484	0.9930215261612902	0.06268593781972813	0.7318533497594534	1.3784650328419665	0.07430768720126564	0.8904449482303043	1.7799196453398305	0.08409063327722625	0.6745423599207936	1.8055165647149998	0.028559933282308526	0.7491359442908216	1.8254347941042666	0.08977570512037192	0.9537228193987063	1.8222653402298898	0.127837762394817	0.4187564613210422	0.44639811910749777	0.11724058878227919	0.30985204794257754	0.2270295271708209	0.12123800964221841	0.27497509425519867	0.36340955425364185	0.2894313405073626	0.4325027821435807	0.5193826617495128	0.3281231647471785	0.5226934112116578	0.7804698776887897	0.23017235479024536	0.4283642890087877	0.9991809955698361	0.15863563524784266	0.43903137012364385	1.0872896715461113	0.15329505199293128	0.42918994313397446	1.096980642174763	0.15652875994976453	0.45653868276585147	1.0915292162995713	-0.022663499670476296	0.44108935542253663	0.5304878223930131	-0.03908450861864273	0.47769192288065915	0.8031425898067547	0.08612745687425806	0.46537850722981106	1.0070951842552882	0.17018049740418464	0.43010174033800586	1.0552036530709472	0.17239877382985658	0.4361769390738977	1.089514857305235	0.13495568532512622	0.43803342585916816	1.0995449054771387
1	0.016666666666666666	0.24692895751136515	0.6144398867019405	0.988361190452479	0.250399325050928	0.7110546892395647	1.3618135519186716	0.23534931965179182	0.9208813816354244	1.7761067528042962	0.2310074785629367	0.6630598116998822	1.7998786800018727	0.2902589576279013	0.7238437586683912	1.8006456611794113	0.24010580108194188	1.0172477616447342	1.814501973502584	0.02725953124491003	0.6011348088997901	0.9931103600958979	0.06218450933957438	0.7319751763295097	1.374468761680908	0.07432087594350546	0.8902531506590562	1.7797423999847526	0.08399022311115342	0.6696388706857525	1.7967448622839468	0.032217420243058424	0.7473521832475364	1.8206919187372228	0.09435624227269819	0.9360907170533973	1.8171587934977236	0.1278552479190727	0.41874684850258204	0.44643359126274307	0.11740078546857191	0.3096512403054489	0.22701912358381443	0.11724988958646707	0.273395777619621	0.3639772121862958	0.28528043706079953	0.43074758011521386	0.5199058300214005	0.32808964256352324	0.5228009534137893	0.7805925628092837	0.2262242833964177	0.4416196892247516	0.9998939006492503	0.15840288918954643	0.43949537144859174	1.0874958692941854	0.15297469109736042	0.4295379779480677	1.0970212096326548	0.1557469325398771	0.45762101852277165	1.0959603043635213	-0.025379634629650177	0.4288997696317963	0.5322492868959722	-0.0387930337620823	0.47770469048535796	0.8067359865876493	0.08627894300360572	0.46538388992094537	1.0071725665139986	0.168918860903845	0.43161847435461703	1.0610319633662602	0.16735859629010996	0.4486906732642236	1.0877452440410997	0.13418510079370372	0.43591763153036384	1.0963668637029023
2	0.03333333333333333	0.24696298623520058	0.6144128510278195	0.9884151719668048	0.2510676075126986	0.7143071180639289	1.3623203536158457	0.2353472454746639	0.9208927132327434	1.7761242834472208	0.23109797280195327	0.6627375162364675	1.7998207390719914	0.285681773585579	0.7216002734084229	1.8007611569362025	0.2401258275167748	1.0173744963804119	1.8145869787244866	0.028060302043557896	0.6037084396739333	0.9977663895626182	0.061612219553023276	0.7336612625555491	1.3788271133230545	0.07433779123459572	0.8902653416738656	1.7796825538382588	0.08401152873442828	0.6696525397423189	1.7967677908978323	0.032172102474286604	0.7471320473459857	1.8206221020844107	0.09418713796904825	0.9357039181601405	1.817110425526023	0.12787551413941883	0.4186722845262385	0.4464285138561379	0.11738602086135151	0.30972135196714945	0.22704572654550442	0.12099572904395527	0.27503801753847124	0.3599338775005184	0.2894493419926359	0.43253302980559677	0.5194278834887163	0.3280901428720468	0.522714284309821	0.7806296023332644	0.2301325701204471	0.42850804622377914	0.9992273702241528	0.1585807021345488	0.4394419871796409	1.0874469094754253	0.15297130547045723	0.4294942207631232	1.0969580613413523	0.15552897430551163	0.45763585295951226	1.0959263943029862	-0.02535739833277583	0.4289681178184771	0.5322602575732566	-0.03880933712971491	0.4776518196770477	0.8068676141212029	0.08635878972901329	0.4652961573895495	1.0072358399167456	0.16868856750380465	0.4309016675061368	1.0611127515257062	0.17160421499190334	0.4362316421246395	1.0894016167870877	0.13498660044990796	0.43810573660245866	1.0993932338762922
3	0.05	0.24683549992827655	0.5874281098679349	0.9955154097290327	0.24765709222398635	0.717554944561109	1.3762555648271135	0.23479664268887626	0.92143348837386	1.771797157063606	0.23588905066907037	0.680105821521275	1.8078986253037186	0.2959094356073904	0.7409297455842289	1.8091709919405412	0.23906111769632474	0.983762843517052	1.8105623074823465	0.028605423177747873	0.6038798387603809	1.0015571957856089	0.06342676747203288	0.7355140248292055	1.379817130471802	0.07389169782018028	0.8911321012309295	1.7756963532316417	0.08497568119234175	0.6727746767015723	1.8011024476493787	0.02759717620852362	0.7451839311367411	1.8202125664741644	0.094837208725105	0.9323061262799347	1.8116024155347592	0.12779450416228422	0.4188390749005429	0.44644213102923025	0.11747852871484736	0.30970300598010425	0.22709991899554666	0.11717970686946888	0.27328473864521874	0.36399352497849496	0.2894918643673055	0.432706299970448	0.5194010837381245	0.32817295599265367	0.5227128532617196	0.7805022519578889	0.23011734879555712	0.42850431427979097	0.9991587878409823	0.1586363598051522	0.43901984990269527	1.087332308645989	0.1559514942547954	0.43067823874591765	1.0968445688827668	0.15526928104051618	0.45701155140728167	1.0959198156419365	-0.022639177459385918	0.44124499342343804	0.5304850529094627	-0.03879084164411631	0.47771544852805425	0.8066995165916845	0.08658384822589431	0.46512258206936147	1.0072513656957358	0.168834797716012	0.4314126063726054	1.0612178445416562	0.16754090807984032	0.4490572157974248	1.0877435268631694	0.13421735662422848	0.4359620696704909	1.0962313481041184
4	0.06666666666666667	0.24299131438715227	0.6020584965759271	0.9962474721565623	0.24768244172612058	0.717739022343969	1.37625480465789	0.2348335897438853	0.9212723070244591	1.7716982772102108	0.23593677207451721	0.6799884125065884	1.8078174715741062	0.295447482421036	0.7414195799788951	1.805223113391089	0.23908120710505185	0.9836569668455006	1.8104736478275003	0.02853849268341826	0.6039088736541843	1.0014653276118262	0.06331730367510169	0.7354222343886656	1.3797822087268328	0.07387439293342525	0.8911211624036002	1.7756425902325759	0.08503140228724229	0.6728689177835148	1.8010307291335612	0.03200518690296621	0.7472342751096325	1.8204334061303913	0.09485692787185869	0.9323284234528203	1.8115484338974213	0.12781034091103685	0.41868328758563295	0.4464528147751622	0.11750405431590989	0.3096668049781388	0.22707073414334983	0.11690574252402326	0.2729691436537064	0.3605854890391366	0.2894351193260825	0.43245060014093384	0.5194025296687801	0.3281806341957432	0.5227030234829633	0.7804885930435125	0.23018709734597434	0.428664405450875	0.9991716498802049	0.15864928809740245	0.4398718375630074	1.087550638433364	0.15520614171139932	0.4296488721567449	1.093169277969743	0.1551490438741671	0.45745843203094144	1.0959006771510078	-0.022664952739094014	0.44115943538313207	0.5305178765665962	-0.03910076408271337	0.4775328370896956	0.8032299908326914	0.08659711771112383	0.46521209166985467	1.00725823927338	0.1683833222838496	0.43104466942169367	1.058855652620178	0.1681967416093249	0.4513398054050652	1.088067869354934	0.1342057743683046	0.4357756795961959	1.0963841911302543
5	0.08333333333333333	0.24255366688820762	0.6022634411071102	0.9926807461304081	0.24693122095784	0.7194375564679361	1.3805127845652705	0.234778377399552	0.9213952081844241	1.7717405203247116	0.23590998216311648	0.6802353002536952	1.807869840213253	0.2941774199370949	0.7388799781888721	1.8004910023822533	0.23906421079162732	0.9836791345226218	1.810480476050288	0.028484019827926435	0.6039425067955142	1.0014709881174957	0.06375489821036667	0.7404177070027095	1.3889953107721962	0.07387729377015027	0.8912698105232213	1.7756511177857648	0.08504357898887845	0.6728614457285714	1.801048350046634	0.03195981274190661	0.7471929307362244	1.8204135381241662	0.09501368391487448	0.9328510958979365	1.811662548546518	0.12779732478746672	0.4186975989386567	0.44648180319231107	0.11752164569383163	0.3097605516489324	0.22708916547577526	0.12089285443955786	0.2744684936477526	0.36004653344981097	0.2894540012580173	0.4325894297942101	0.5194150010831294	0.3282281874803243	0.5227593565430964	0.7804469681947417	0.23020248823956524	0.4285502734330543	0.9992152200611107	0.1589436647536876	0.44021742251240636	1.0875895677464609	0.15589448934933675	0.43010594759865095	1.0934470481590988	0.15559639242110454	0.4574600783865469	1.0958899992438447	-0.02265864928764379	0.4411447811694293	0.5304870667587102	-0.03907213848430689	0.4776228112086837	0.8031643407188994	0.08655997401381077	0.4652700635931813	1.007224693780366	0.16925160236632084	0.43194353396710045	1.0582687953657886	0.1691057570782605	0.45269298818409165	1.0883793452872366	0.13411405816153002	0.43575052622463273	1.0967085573579918
